<?xml version="1.0" encoding="utf-8"?>
<!-- Generator: Adobe Illustrator 28.1.0, SVG Export Plug-In . SVG Version: 6.00 Build 0)  -->
<svg version="1.1" id="Layer_1" xmlns="http://www.w3.org/2000/svg" xmlns:xlink="http://www.w3.org/1999/xlink" x="0px" y="0px"
	 viewBox="0 0 16 16" style="enable-background:new 0 0 16 16;" xml:space="preserve">
<style type="text/css">
	.st0{fill:none;stroke:#000000;stroke-width:0.5;stroke-miterlimit:10;}
	.st1{fill:none;stroke:#000000;stroke-width:0.75;stroke-miterlimit:10;}
</style>
<g>
	<path d="M8.82,9.88c1.01,0,1.84,0.82,1.84,1.84s-0.82,1.84-1.84,1.84s-1.84-0.82-1.84-1.84S7.8,9.88,8.82,9.88 M8.82,9.38
		c-1.29,0-2.34,1.05-2.34,2.34s1.05,2.34,2.34,2.34s2.34-1.05,2.34-2.34S10.11,9.38,8.82,9.38L8.82,9.38z"/>
</g>
<g>
	<line class="st0" x1="10.81" y1="6" x2="10.81" y2="15.6"/>
</g>
<line class="st0" x1="9.31" y1="15.41" x2="11.12" y2="15.41"/>
<line class="st0" x1="9.18" y1="6.21" x2="11.04" y2="6.21"/>
<line class="st0" x1="10.84" y1="11.63" x2="14.02" y2="9.51"/>
<line class="st0" x1="11" y1="11.86" x2="14.12" y2="15.53"/>
<path class="st0" d="M7.94,8.54"/>
<path class="st0" d="M10.07,10.06c0.25,0.33-2.06-2.87-3.25-3.42c-0.57-0.26-1.8-0.16-2.04,1.23C4.56,9.16,5.46,9.94,5.46,9.94"/>
<rect x="1.5" y="0.5" class="st1" width="13" height="15"/>
</svg>
