<?xml version="1.0" encoding="utf-8"?>
<!-- Generator: Adobe Illustrator 28.1.0, SVG Export Plug-In . SVG Version: 6.00 Build 0)  -->
<svg version="1.1" id="Layer_1" xmlns="http://www.w3.org/2000/svg" xmlns:xlink="http://www.w3.org/1999/xlink" x="0px" y="0px"
	 viewBox="0 0 160 160" style="enable-background:new 0 0 160 160;" xml:space="preserve">
<style type="text/css">
	.st0{fill:none;stroke:#000000;stroke-width:5;stroke-miterlimit:10;}
	.st1{fill:none;stroke:#000000;stroke-width:0.5;stroke-miterlimit:10;}
</style>
<g>
	<path d="M89.92,100.91c9.89,0,17.94,8.05,17.94,17.94s-8.05,17.94-17.94,17.94c-9.89,0-17.94-8.05-17.94-17.94
		S80.03,100.91,89.92,100.91 M89.92,95.91c-12.67,0-22.94,10.27-22.94,22.94s10.27,22.94,22.94,22.94s22.94-10.27,22.94-22.94
		S102.58,95.91,89.92,95.91L89.92,95.91z"/>
</g>
<g>
	<line class="st0" x1="110.49" y1="62.7" x2="110.49" y2="156.92"/>
</g>
<line class="st0" x1="94.5" y1="64.74" x2="112.75" y2="64.74"/>
<line class="st0" x1="110.81" y1="117.96" x2="141.99" y2="97.18"/>
<line class="st0" x1="112.33" y1="120.24" x2="143" y2="156.23"/>
<path class="st1" d="M55.79,59.04"/>
<path class="st0" d="M104.26,104.52c2.49,3.25-20.23-28.15-31.87-33.58c-5.56-2.59-17.68-1.56-20.04,12.09
	c-2.2,12.67,6.66,20.34,6.66,20.34"/>
<rect x="17.5" y="4.5" class="st0" width="125" height="151"/>
</svg>
